<svg version="1" xmlns="http://www.w3.org/2000/svg" width="673.333" height="673.333" viewBox="0 0 505.000000 505.000000"><path d="M211.9 10.3c-.2.3-3.1.7-6.4 1-13.9 1.3-41.4 8.6-61.9 16.4-19.8 7.5-41.6 19.6-58.1 32.1-8.5 6.5-32.9 31.3-40 40.7-21.8 29-36.1 65.2-42.6 108-.6 3.8-1.3 8.1-1.5 9.5-.3 1.4-.7 11-.9 21.5-.5 24.9.6 27.9 5.3 13.5 1.1-3.6 3.3-9.2 4.8-12.5 2.8-6.1 11.1-20.6 12.3-21.5.3-.3 1.9-2.3 3.6-4.5 11.2-15.3 31.5-31.3 51.8-41 15.1-7.3 39.4-14.8 54.2-16.9 2.2-.4 5.1-.8 6.5-1.1 6.6-1.2 23.2-2.3 43.5-3 41.8-1.4 47.2-1.8 57.5-4.1 30.8-6.8 52.7-25.8 58.2-50.4 1.5-6.4 1.7-25.9.4-34.2-2.9-18.6-17.9-37.7-36.1-45.7-4.4-2-13.6-5.1-16.5-5.6-1.4-.3-3.6-.7-5-1.1-3-.7-28.4-1.6-29.1-1.1z"/><path d="M203.8 184.5c-.2.2-4.6.6-10 .9-5.3.4-10.5.8-11.5 1-1 .2-4.8.7-8.5 1-3.7.4-7.7.9-9 1.1-1.3.2-5.2.9-8.8 1.5-6.5 1-9.3 1.5-14 2.5-1.4.3-3.4.7-4.5.9-27.1 5.3-59.5 19-77.5 32.9-23.5 18.2-37.5 37.1-45.9 61.8-3.3 9.6-3.2 11.8.5 26.9 7.8 31.3 20 55.8 41.1 82 6.6 8.3 27.8 30.1 35.9 37 27.5 23.5 59.1 40.8 92.9 50.8 13.5 4.1 27.5 7.3 28.5 6.7 1.4-.9-.1-3.5-7.9-13.5-29.8-38.2-48.2-80.6-51.9-119-.9-9.4-.9-39.8 0-46.5 4.9-37.1 20.1-70.3 50.2-110 10.4-13.7 11.6-15.8 9.6-17-1-.6-8.7-1.4-9.2-1zM390.7 199.6c-.1.1-10.8.4-23.7.8-31.5.8-35.4 1.3-44.2 6-18.8 10-28.7 22.5-33.5 42.1-.9 3.9-1 21.1-.2 27 .5 3.3 1.1 7.4 1.4 9 .7 4.5 4.4 16.1 7.1 22.4 3.7 8.2 9.7 15.5 16.5 20.2l6.2 4.2 12.6-.8c17.3-1.1 30.4-.8 39.1 1 .8.2 2.9.6 4.5.9 1.7.3 4.1.8 5.4 1.1 14.3 2.8 36.5 14.3 44.5 23 6.4 6.9 8.5 9.4 11.4 13.6 3.8 5.7 9.5 16.9 11.2 22.4.7 2.2 2.2 5.3 3.3 6.9l2.1 2.9 3.9-4.4c12.2-13.7 37.6-58.9 42-74.9 3.2-11.4 3.5-16.1 4.1-60.5l.5-34-3.7-6.6c-2-3.7-4.8-8.1-6.2-9.8-3-3.7-10.4-8.8-15.2-10.2-2.9-.9-23.8-1.5-74.1-2.2-8.2-.1-14.9-.1-15-.1z"/><path d="M178.2 289.7c-1.2 2.9-6.1 21.9-6.8 26.3-.2 1.4-.9 4.7-1.4 7.3-1.2 5.7-2.4 20.6-2.4 29.7 0 7.7 1.3 25 1.9 26 .3.4.7 2.5 1.1 4.6 1.6 11 7.9 29.6 14.2 41.9 11.7 23 31.3 45.8 54 63l8.7 6.6 18-.2c9.9 0 20.5-.5 23.5-.9 12.1-1.7 14.8-2.2 22.5-4 22.5-5.3 39.4-11.3 60-21.5 12.6-6.2 31.5-17.7 39-23.7 22.5-18.1 26.2-22.3 25.1-28.9-1-6.1-7.1-21.4-11.6-29-9.9-16.8-28.2-30.2-49.6-36.4-9.6-2.8-17.1-3.5-37.7-3.8l-13.8-.2-6.7 4c-17.2 10.3-29.9 15.6-43.5 17.9-25.9 4.5-48.6-5.3-65.7-28.4-2.7-3.7-5-7-5-7.4 0-.3-1.4-2.8-3.1-5.5-3.6-6-10.2-21.2-12.9-29.9-3.3-10.7-5.7-13-7.8-7.5z"/></svg>