<?xml version="1.0" encoding="UTF-8" standalone="no"?>
<!-- Created with Inkscape (http://www.inkscape.org/) -->

<svg
   xmlns:dc="http://purl.org/dc/elements/1.1/"
   xmlns:cc="http://creativecommons.org/ns#"
   xmlns:rdf="http://www.w3.org/1999/02/22-rdf-syntax-ns#"
   xmlns:svg="http://www.w3.org/2000/svg"
   xmlns="http://www.w3.org/2000/svg"
   xmlns:sodipodi="http://sodipodi.sourceforge.net/DTD/sodipodi-0.dtd"
   xmlns:inkscape="http://www.inkscape.org/namespaces/inkscape"
   width="123.32633mm"
   height="118.5145mm"
   viewBox="0 0 123.32633 118.5145"
   version="1.1"
   id="svg4558"
   inkscape:version="0.91 r13725"
   sodipodi:docname="filledcolor.svg">
  <defs
     id="defs4552" />
  <sodipodi:namedview
     id="base"
     pagecolor="#ffffff"
     bordercolor="#666666"
     borderopacity="1.0"
     inkscape:pageopacity="0.0"
     inkscape:pageshadow="2"
     inkscape:zoom="1.4"
     inkscape:cx="206.83059"
     inkscape:cy="231.76657"
     inkscape:document-units="mm"
     inkscape:current-layer="layer1"
     showgrid="false"
     inkscape:window-width="1920"
     inkscape:window-height="1024"
     inkscape:window-x="0"
     inkscape:window-y="27"
     inkscape:window-maximized="1"
     fit-margin-top="0"
     fit-margin-left="0"
     fit-margin-right="0"
     fit-margin-bottom="0" />
  <metadata
     id="metadata4555">
    <rdf:RDF>
      <cc:Work
         rdf:about="">
        <dc:format>image/svg+xml</dc:format>
        <dc:type
           rdf:resource="http://purl.org/dc/dcmitype/StillImage" />
        <dc:title />
      </cc:Work>
    </rdf:RDF>
  </metadata>
  <g
     inkscape:label="Layer 1"
     inkscape:groupmode="layer"
     id="layer1"
     transform="translate(-54.844706,-50.250243)">
    <path
       style="fill:#311b92;fill-opacity:1;stroke-width:0.34053329"
       d="m 55.078077,111.67437 c -0.417341,-0.41734 -0.240798,-8.38192 0.259279,-11.69732 1.610715,-10.67864 4.440002,-18.51992 9.335028,-25.87173 2.325781,-3.49308 7.744099,-9.20853 11.184506,-11.79786 7.343655,-5.526995 15.870966,-9.168784 26.55837,-11.342377 12.35448,-2.512645 22.16506,1.721185 24.96055,10.771917 0.81406,2.63564 0.92422,7.8552 0.22132,10.48659 -1.53508,5.74668 -6.28688,9.84316 -13.66923,11.78409 -2.2936,0.60302 -4.25852,0.75983 -12.42946,0.99193 -11.42279,0.32447 -15.185829,0.82574 -21.79413,2.90315 -9.710545,3.05265 -17.17895,8.94494 -21.4227,16.90168 -0.731619,1.37174 -1.602778,3.41352 -1.935911,4.53728 -0.659539,2.22484 -0.911598,2.68867 -1.267622,2.33265 z"
       id="path4571"
       inkscape:connector-curvature="0" />
    <path
       style="fill:#5528b0;fill-opacity:1;stroke-width:0.34053329"
       d="m 102.69031,167.08138 c -6.457393,-1.67447 -11.110446,-3.5699 -16.386747,-6.67516 -11.248802,-6.62028 -21.723528,-18.24099 -25.672624,-28.48134 -1.662886,-4.312 -3.159557,-10.09249 -2.970745,-11.4737 0.29118,-2.13006 2.290308,-6.79144 4.024883,-9.38484 2.275147,-3.40163 6.979199,-7.78213 10.72152,-9.98409 7.769747,-4.57165 17.878839,-7.17824 31.391293,-8.0941 4.16855,-0.28254 4.23881,-0.0476 1.13378,3.79073 -6.855953,8.47515 -10.893415,16.92571 -12.510107,26.18417 -0.808688,4.63118 -0.467433,13.46847 0.70015,18.13135 2.081217,8.31158 6.646298,17.32749 12.063187,23.82445 1.5855,1.90164 2.20261,3.19157 1.50667,3.14936 -0.14047,-0.009 -1.94104,-0.45259 -4.00126,-0.98683 z"
       id="path5134"
       inkscape:connector-curvature="0" />
    <path
       style="fill:#673AB7;fill-opacity:1;stroke-width:0.34053329"
       d="m 113.5512,167.51389 c -13.48817,-10.12427 -19.601882,-24.15464 -17.335537,-39.78338 0.465212,-3.2081 1.842778,-8.82262 2.376646,-9.68643 0.399606,-0.64657 1.08827,0.18538 1.496961,1.80843 0.6456,2.5639 2.80505,7.33202 4.4654,9.85971 6.34934,9.66612 15.60034,11.04139 27.05534,4.02207 l 2.01757,-1.23631 4.79309,0.0374 c 3.72371,0.0291 5.38574,0.19789 7.44942,0.75666 5.43893,1.47268 9.90653,4.70633 12.57787,9.10385 1.48909,2.45129 3.1074,7.10281 2.84077,8.16519 -0.2932,1.1682 -4.68819,5.04727 -8.88057,7.83807 -6.94473,4.62302 -14.45509,7.71508 -23.03026,9.48169 -3.46327,0.71348 -5.24203,0.88391 -9.22537,0.88391 l -4.93483,0 z"
       id="path5136"
       inkscape:connector-curvature="0" />
    <path
       style="fill:#7755b2;fill-opacity:1;stroke-width:0.12626907"
       d="m 625.97062,551.48706 c -0.59845,-0.22138 -1.66614,-1.83497 -2.55131,-3.85574 -0.27134,-0.61943 -0.90649,-2.31948 -1.41145,-3.77788 -0.50497,-1.45841 -1.25723,-3.50397 -1.67168,-4.54569 -6.25926,-15.73228 -16.72354,-28.92232 -29.97684,-37.78529 -12.7193,-8.50586 -31.10713,-14.41396 -49.79813,-16.00041 -4.29758,-0.36477 -7.9283,-0.48037 -12.69004,-0.40404 -5.0597,0.0811 -7.00387,0.20865 -13.76333,0.90296 -7.44601,0.76483 -9.59134,0.72916 -11.91932,-0.19817 -1.78932,-0.71276 -4.93276,-2.61192 -7.27257,-4.39385 -1.61114,-1.22699 -4.99778,-4.59302 -6.4313,-6.39216 -7.93711,-9.96143 -13.05981,-25.31449 -14.99862,-44.95178 -0.26104,-2.64389 -0.21924,-11.48282 0.0666,-14.07901 1.94018,-17.62356 9.92244,-31.01402 24.14027,-40.49593 2.09242,-1.39544 4.66688,-2.88665 7.1342,-4.13237 6.80804,-3.43727 9.95819,-4.17708 21.78141,-5.11534 10.11506,-0.80271 27.88147,-1.08209 61.87185,-0.97296 37.15543,0.1193 51.41671,0.37693 57.45242,1.03789 3.62317,0.39677 5.27156,0.88084 8.42741,2.4748 5.31221,2.68308 8.92564,5.94598 12.28245,11.09096 1.43122,2.19363 2.35972,3.86539 4.69867,8.46003 l 2.02479,3.97747 -0.29083,20.45559 c -0.3489,24.54049 -0.53059,34.99963 -0.69313,39.90103 -0.58837,17.74295 -1.85226,24.39973 -6.78463,35.73415 -2.46054,5.65425 -7.79682,16.54012 -10.81743,22.06727 -9.01964,16.5043 -20.12959,33.36164 -25.70331,39.00015 -1.6869,1.70651 -2.49302,2.22512 -3.10612,1.99832 z"
       id="path4573"
       inkscape:connector-curvature="0"
       transform="scale(0.26458333,0.26458333)" />
  </g>
</svg>
